<?xml version="1.0" standalone="no"?>
<!DOCTYPE svg PUBLIC "-//W3C//DTD SVG 20010904//EN"
 "http://www.w3.org/TR/2001/REC-SVG-20010904/DTD/svg10.dtd">
<svg version="1.0" xmlns="http://www.w3.org/2000/svg"
 width="592.000000pt" height="544.000000pt" viewBox="0 0 592.000000 544.000000"
 preserveAspectRatio="xMidYMid meet">

<g transform="translate(0.000000,544.000000) scale(0.100000,-0.100000)"
fill="#6558f5" stroke="none">
<path d="M1300 5425 c-236 -48 -426 -205 -516 -426 -55 -135 -53 -66 -53
-2103 0 -1649 2 -1891 15 -1935 10 -36 20 -51 32 -50 9 0 384 -3 832 -6 448
-4 1433 -3 2188 1 l1372 7 15 51 c13 44 14 313 12 1971 -3 1702 -5 1926 -19
1975 -56 199 -188 362 -361 449 -165 83 -3 76 -1827 78 -1313 1 -1637 -1
-1690 -12z m2759 -268 c48 -32 80 -91 81 -146 0 -46 -35 -116 -70 -141 -28
-20 -43 -20 -1104 -20 -1207 0 -1104 -7 -1151 75 -57 96 -5 222 103 255 15 5
493 8 1063 7 l1035 -2 43 -28z m619 -723 c50 -6 108 -52 128 -100 11 -26 14
-226 15 -1023 l1 -991 -22 -45 c-25 -52 -61 -81 -116 -92 -21 -4 -402 -7 -846
-5 l-808 2 0 1133 0 1132 802 -2 c442 -2 822 -5 846 -9z m-1778 -1124 l0
-1130 -832 0 -833 0 -39 23 c-25 14 -48 39 -63 66 l-23 44 0 989 c0 867 2 993
15 1025 21 50 42 72 90 94 38 18 86 19 863 19 l822 0 0 -1130z m616 -1500 c30
-28 68 -106 78 -162 l7 -38 -637 0 -636 0 7 38 c15 81 64 163 110 183 11 4
250 7 532 6 l511 -2 28 -25z m-1630 -212 c103 -56 130 -182 57 -269 -55 -65
-77 -69 -383 -69 -284 0 -335 5 -379 37 -34 25 -71 99 -71 142 0 45 35 116 69
140 50 36 89 40 386 38 253 -2 294 -4 321 -19z m2837 -2 c49 -24 88 -82 94
-140 7 -61 -26 -128 -80 -164 l-41 -27 -306 0 c-280 0 -309 2 -348 19 -45 20
-83 72 -96 129 -13 57 31 149 88 179 44 24 88 27 366 25 258 -2 289 -4 323
-21z m-1115 -188 l3 -78 -646 0 -645 0 0 73 c0 41 3 77 7 80 3 4 293 6 642 5
l636 -3 3 -77z m-18 -230 c0 -34 -43 -119 -74 -148 l-28 -25 -523 0 -523 0
-27 25 c-33 31 -61 84 -70 133 l-7 37 626 0 626 0 0 -22z"/>
<path d="M120 4018 c-61 -32 -98 -81 -111 -152 -6 -37 -9 -184 -7 -400 3 -326
4 -343 24 -381 27 -50 48 -69 104 -94 38 -18 66 -21 187 -21 78 0 148 3 157 6
14 5 16 62 16 535 l0 529 -163 0 c-149 0 -166 -2 -207 -22z"/>
<path d="M5430 3505 l0 -535 158 0 c136 0 163 3 202 21 56 25 77 44 104 94 20
38 21 55 24 381 2 216 -1 363 -7 400 -13 70 -49 118 -111 151 -40 21 -56 23
-207 23 l-163 0 0 -535z"/>
<path d="M601 751 c-8 -5 -15 -35 -19 -80 -4 -62 -1 -77 22 -125 15 -31 46
-71 69 -91 60 -52 117 -65 279 -65 l138 0 0 -127 c0 -148 16 -196 78 -235 36
-23 43 -23 312 -23 269 0 276 0 312 23 62 39 78 87 78 235 l0 127 1095 0 1095
0 0 -127 c0 -148 16 -196 78 -235 36 -22 43 -23 307 -23 254 0 272 1 310 21
25 13 47 36 62 64 21 38 23 57 23 172 l0 128 143 0 c167 0 213 12 280 70 63
56 91 125 85 211 -3 36 -8 71 -12 78 -9 13 -4713 16 -4735 2z"/>
</g>
</svg>
